<?xml version="1.0" encoding="utf-8"?>
<!-- Generator: Adobe Illustrator 16.0.0, SVG Export Plug-In . SVG Version: 6.00 Build 0)  -->
<!DOCTYPE svg PUBLIC "-//W3C//DTD SVG 1.1//EN" "http://www.w3.org/Graphics/SVG/1.1/DTD/svg11.dtd">
<svg version="1.1" id="Layer_1" xmlns="http://www.w3.org/2000/svg" xmlns:xlink="http://www.w3.org/1999/xlink" x="0px" y="0px"
	 width="841.89px" height="595.28px" viewBox="0 0 841.89 595.28" enable-background="new 0 0 841.89 595.28" xml:space="preserve">
<path fill="#FFFFFF" d="M152.783,250.779c0.426,3.189,0.814,6.252,1.169,9.188c0.354,2.941,0.707,5.894,1.063,8.87
	c0.139,1.631,0.264,3.242,0.37,4.834c0.107,1.592,0.229,3.202,0.371,4.83c0.214,2.906,0.425,5.772,0.639,8.604
	c0.211,2.836,0.388,5.703,0.53,8.604c0.142,2.975,0.229,5.968,0.266,8.975c0.036,3.01,0.088,6.003,0.16,8.979
	c0,4.106-0.107,8.178-0.319,12.213c-0.072,1.348-0.232,2.656-0.478,3.931c-0.251,1.273-0.691,2.513-1.329,3.717
	c-0.851,1.558-1.983,2.906-3.399,4.037c-0.781,0.709-1.505,1.469-2.177,2.284c-0.674,0.813-1.328,1.646-1.965,2.496
	c-1.983,2.478-4.284,4.816-6.904,7.006c-0.992-0.423-1.681-1.006-2.07-1.748c-0.39-0.748-0.764-1.541-1.116-2.392
	c-0.354-0.85-0.69-1.715-1.008-2.6c-0.318-0.886-0.692-1.755-1.115-2.604c-1.063-2.052-1.931-4.197-2.603-6.427
	c-0.673-2.23-1.047-4.546-1.117-6.954c-0.142-4.251-0.229-8.499-0.264-12.748c-0.037-4.251-0.125-8.496-0.267-12.745
	c-0.141-3.896-0.249-7.77-0.318-11.631c-0.072-3.856-0.177-7.701-0.318-11.523c-0.144-2.905-0.196-5.771-0.159-8.603
	c0.035-2.832-0.017-5.667-0.159-8.499c-0.145-2.976-0.319-5.947-0.532-8.922c-0.212-2.971-0.389-5.947-0.531-8.922
	c-0.141-2.265-0.194-4.477-0.159-6.636c0.037-2.16,0.087-4.372,0.159-6.64c0-1.204,0.053-2.391,0.16-3.556
	c0.107-1.169,0.193-2.355,0.266-3.56c0.069-1.13,0.458-2.142,1.167-3.028c0.707-0.886,1.557-1.558,2.551-2.016
	c0.989-0.462,2.052-0.672,3.187-0.637c1.129,0.034,2.157,0.371,3.079,1.008c0.777,0.497,1.487,0.99,2.124,1.487
	c0.637,0.493,1.132,1.13,1.488,1.912c1.274,2.691,2.92,5.06,4.938,7.115c2.018,2.055,4.018,4.141,6.001,6.266
	c2.832,2.975,5.541,5.986,8.125,9.031c2.583,3.045,4.974,6.264,7.168,9.663c2.55,3.896,5.063,7.753,7.541,11.579
	c2.479,3.822,5.029,7.644,7.648,11.47c2.478,3.682,5.008,7.33,7.594,10.937c2.584,3.612,5.222,7.225,7.914,10.838
	c1.486,2.049,3.081,3.999,4.779,5.841c1.7,1.841,3.361,3.717,4.991,5.627c0.069,0.07,0.159,0.122,0.267,0.158
	c0.106,0.038,0.229,0.092,0.37,0.16c0.568-0.143,0.867-0.387,0.904-0.745c0.034-0.354,0.054-0.707,0.054-1.061
	c-0.144-2.265-0.251-4.516-0.32-6.744c-0.069-2.23-0.177-4.477-0.318-6.745c-0.212-5.311-0.423-10.585-0.638-15.824
	c-0.211-5.24-0.39-10.515-0.529-15.828c-0.145-4.529-0.232-9.045-0.266-13.542c-0.037-4.495-0.124-9.01-0.266-13.543
	c-0.07-3.185-0.142-6.3-0.212-9.345c-0.071-3.045-0.106-6.16-0.106-9.345c0-1.841,0.194-3.629,0.585-5.366
	c0.388-1.732,1.044-3.521,1.965-5.362c1.062,0.497,1.841,1.135,2.336,1.911c0.495,0.781,0.883,1.631,1.169,2.548
	c0.211,0.637,0.353,1.312,0.424,2.02c0.069,0.706,0.176,1.377,0.318,2.019c1.204,4.957,2,9.947,2.391,14.974
	c0.388,5.03,0.796,10.091,1.221,15.187c0.495,5.737,0.973,11.491,1.433,17.259c0.461,5.771,0.973,11.561,1.541,17.368
	c0.213,2.125,0.512,4.25,0.903,6.374c0.388,2.121,0.654,4.284,0.795,6.479c0.354,4.458,0.727,8.904,1.115,13.327
	c0.389,4.425,0.301,8.905-0.264,13.439c-0.144,0.99-0.355,1.964-0.637,2.919c-0.283,0.955-0.604,1.928-0.958,2.918
	c-0.423,1.135-0.886,2.269-1.38,3.402c-0.496,1.131-0.993,2.335-1.486,3.61c-2.054-0.071-4.107-0.28-6.159-0.638
	c-2.055-0.354-3.79-1.523-5.206-3.504c-0.637-0.852-1.293-1.702-1.965-2.547c-0.674-0.853-1.327-1.703-1.965-2.553
	c-2.052-2.403-4.088-4.812-6.106-7.221c-2.018-2.409-4.021-4.853-6.001-7.33c-1.274-1.629-2.48-3.277-3.613-4.939
	c-1.132-1.663-2.301-3.346-3.503-5.043c-2.055-2.976-4.09-5.952-6.108-8.922c-2.018-2.976-4.02-5.986-6-9.032
	c-2.481-3.678-4.904-7.381-7.275-11.099c-2.374-3.717-4.765-7.452-7.17-11.204c-0.849-1.274-1.807-2.514-2.867-3.717
	C155.333,253.4,154.127,252.127,152.783,250.779z"/>
<path fill="#FFFFFF" d="M326.12,344.354c0,0.78-0.408,1.47-1.221,2.071c-0.814,0.603-1.577,1.082-2.284,1.436
	c-0.567,0.283-1.115,0.567-1.645,0.846c-0.533,0.285-1.083,0.394-1.647,0.319c-1.63-0.14-3.26-0.175-4.886-0.105
	c-1.63,0.071-3.187-0.317-4.673-1.169c-1.56-0.777-2.905-1.784-4.035-3.027c-1.135-1.235-2.09-2.67-2.868-4.302
	c-1.275-2.475-2.336-4.991-3.188-7.538c-0.848-2.55-1.557-5.17-2.125-7.863c-0.637-3.184-1.398-6.3-2.281-9.344
	c-0.888-3.047-1.754-6.128-2.603-9.242c-0.921-3.329-1.719-6.672-2.391-10.035c-0.674-3.363-1.364-6.744-2.07-10.144
	c0-0.144-0.021-0.266-0.055-0.375c-0.035-0.105-0.053-0.228-0.053-0.372c-0.141-0.776-0.283-1.378-0.425-1.806
	c-0.142-0.423-0.336-0.742-0.583-0.956c-0.251-0.21-0.584-0.336-1.01-0.371c-0.425-0.036-1.027-0.052-1.806-0.052
	c-6.655,0-13.313-0.319-19.966-0.956c-0.356-0.07-0.745-0.087-1.169-0.052c-0.426,0.035-0.957,0.052-1.593,0.052
	c-0.922,0.07-1.595,0.087-2.018,0.052c-0.426-0.035-0.764,0.018-1.01,0.158c-0.248,0.144-0.478,0.461-0.689,0.959
	c-0.214,0.493-0.533,1.309-0.958,2.44c-2.336,5.737-4.689,11.456-7.063,17.154c-2.371,5.702-4.725,11.419-7.061,17.155
	c-0.851,2.056-1.612,4.123-2.284,6.213c-0.674,2.09-1.4,4.197-2.177,6.322c-0.355,1.129-0.833,2.16-1.436,3.079
	c-0.602,0.921-1.398,1.768-2.389,2.548c-0.425,0.354-0.868,0.654-1.329,0.903c-0.46,0.249-0.973,0.198-1.54-0.161
	c-0.567-0.353-0.903-0.794-1.008-1.327c-0.106-0.532-0.089-1.076,0.053-1.644c0.778-3.046,1.54-6.072,2.284-9.085
	c0.744-3.01,1.61-5.997,2.603-8.974c2.478-7.719,5.22-15.314,8.23-22.783c3.009-7.469,5.86-15.065,8.551-22.783
	c1.486-4.389,3.096-8.656,4.833-12.8c1.734-4.141,3.486-8.337,5.257-12.583c1.769-4.18,3.506-8.32,5.205-12.429
	c1.699-4.105,3.399-8.211,5.098-12.321l2.762-7.434c0.281-0.567,0.495-1.095,0.637-1.592c0.142-0.494,0.495-0.921,1.062-1.274
	c0.991-0.567,1.894-1.169,2.709-1.806c0.811-0.636,1.645-1.274,2.496-1.911c0.707-0.498,1.555-0.921,2.548-1.273
	c1.276-0.284,2.513-0.376,3.719-0.267c1.202,0.105,1.911,0.794,2.123,2.068c1.062,3.12,2.266,6.872,3.612,11.26
	c1.202,3.752,2.583,8.39,4.142,13.914c1.556,5.523,3.362,12.001,5.417,19.436c0.991,5.03,2.018,10.004,3.081,14.925
	c1.062,4.921,2.299,9.825,3.717,14.708c0.85,2.976,1.592,5.986,2.231,9.031c0.637,3.045,1.309,6.09,2.019,9.131
	c2.052,7.647,3.928,14.589,5.628,20.819c0.707,2.693,1.398,5.327,2.072,7.915c0.672,2.583,1.274,4.938,1.805,7.062
	c0.532,2.126,0.938,3.927,1.222,5.416C325.979,343.078,326.12,344,326.12,344.354z M279.918,229.855
	c-1.699,3.686-3.364,7.242-4.991,10.675c-1.632,3.438-3.225,6.85-4.78,10.249c-3.259,6.871-6.093,13.739-8.499,20.605
	c-0.142,0.428-0.283,0.833-0.423,1.223c-0.145,0.393-0.145,0.868,0,1.435c1.626-0.139,3.219-0.283,4.78-0.423
	c1.555-0.144,3.115-0.214,4.672-0.214c2.053-0.07,4.105-0.087,6.16-0.053c2.053,0.035,4.106,0.053,6.161,0.053
	c1.273,0,2.018-0.122,2.229-0.371c0.213-0.249,0.249-0.973,0.107-2.176c-0.637-5.101-1.274-10.179-1.911-15.244
	c-0.637-5.062-1.276-10.145-1.913-15.24c-0.211-1.632-0.423-3.312-0.637-5.048C280.661,233.593,280.343,231.77,279.918,229.855z"/>
<path fill="#FFFFFF" d="M353.312,250.779c0.423,3.189,0.812,6.252,1.167,9.188c0.353,2.941,0.706,5.894,1.062,8.87
	c0.142,1.631,0.267,3.242,0.371,4.834c0.106,1.592,0.229,3.202,0.373,4.83c0.212,2.906,0.426,5.772,0.637,8.604
	c0.212,2.836,0.389,5.703,0.53,8.604c0.142,2.975,0.229,5.968,0.266,8.975c0.035,3.01,0.09,6.003,0.159,8.979
	c0,4.106-0.105,8.178-0.318,12.213c-0.072,1.348-0.231,2.656-0.478,3.931c-0.249,1.273-0.689,2.513-1.329,3.717
	c-0.849,1.558-1.983,2.906-3.399,4.037c-0.779,0.709-1.505,1.469-2.176,2.284c-0.674,0.813-1.327,1.646-1.966,2.496
	c-1.983,2.478-4.284,4.816-6.902,7.006c-0.992-0.423-1.684-1.006-2.071-1.748c-0.391-0.748-0.761-1.541-1.115-2.392
	c-0.355-0.85-0.691-1.715-1.01-2.6c-0.319-0.886-0.689-1.755-1.114-2.604c-1.062-2.052-1.931-4.197-2.603-6.427
	c-0.675-2.23-1.045-4.546-1.115-6.954c-0.142-4.251-0.231-8.499-0.266-12.748c-0.035-4.251-0.125-8.496-0.265-12.745
	c-0.144-3.896-0.25-7.77-0.32-11.631c-0.069-3.856-0.177-7.701-0.318-11.523c-0.142-2.905-0.194-5.771-0.159-8.603
	c0.035-2.832-0.018-5.667-0.159-8.499c-0.142-2.976-0.319-5.947-0.531-8.922c-0.211-2.971-0.39-5.947-0.532-8.922
	c-0.14-2.265-0.194-4.477-0.16-6.636c0.038-2.16,0.09-4.372,0.16-6.64c0-1.204,0.055-2.391,0.159-3.556
	c0.107-1.169,0.195-2.355,0.267-3.56c0.07-1.13,0.46-2.142,1.169-3.028c0.708-0.886,1.556-1.558,2.548-2.016
	c0.993-0.462,2.053-0.672,3.187-0.637c1.132,0.034,2.16,0.371,3.081,1.008c0.779,0.497,1.487,0.99,2.125,1.487
	c0.637,0.493,1.132,1.13,1.485,1.912c1.276,2.691,2.921,5.06,4.941,7.115c2.018,2.055,4.016,4.141,6.001,6.266
	c2.828,2.975,5.538,5.986,8.123,9.031c2.585,3.045,4.974,6.264,7.17,9.663c2.547,3.896,5.061,7.753,7.541,11.579
	c2.479,3.822,5.026,7.644,7.649,11.47c2.475,3.682,5.008,7.33,7.593,10.937c2.583,3.612,5.22,7.225,7.909,10.838
	c1.488,2.049,3.08,3.999,4.782,5.841c1.702,1.841,3.364,3.717,4.991,5.627c0.071,0.07,0.162,0.122,0.267,0.158
	c0.105,0.038,0.23,0.092,0.371,0.16c0.566-0.143,0.868-0.387,0.904-0.745c0.034-0.354,0.052-0.707,0.052-1.061
	c-0.141-2.265-0.249-4.516-0.318-6.744c-0.071-2.23-0.175-4.477-0.319-6.745c-0.209-5.311-0.424-10.585-0.636-15.824
	c-0.211-5.24-0.39-10.515-0.528-15.828c-0.144-4.529-0.232-9.045-0.266-13.542c-0.041-4.495-0.126-9.01-0.267-13.543
	c-0.074-3.185-0.145-6.3-0.214-9.345c-0.069-3.045-0.105-6.16-0.105-9.345c0-1.841,0.192-3.629,0.585-5.366
	c0.388-1.732,1.043-3.521,1.964-5.362c1.059,0.497,1.84,1.135,2.337,1.911c0.492,0.781,0.882,1.631,1.165,2.548
	c0.215,0.637,0.354,1.312,0.428,2.02c0.069,0.706,0.174,1.377,0.317,2.019c1.206,4.957,1.999,9.947,2.392,14.974
	c0.389,5.03,0.793,10.091,1.221,15.187c0.494,5.737,0.968,11.491,1.432,17.259c0.461,5.771,0.973,11.561,1.54,17.368
	c0.213,2.125,0.514,4.25,0.902,6.374c0.389,2.121,0.654,4.284,0.799,6.479c0.353,4.458,0.724,8.904,1.111,13.327
	c0.389,4.425,0.303,8.905-0.266,13.439c-0.14,0.99-0.353,1.964-0.637,2.919c-0.283,0.955-0.603,1.928-0.956,2.918
	c-0.423,1.135-0.885,2.269-1.377,3.402c-0.498,1.131-0.995,2.335-1.488,3.61c-2.056-0.071-4.106-0.28-6.161-0.638
	c-2.055-0.354-3.787-1.523-5.205-3.504c-0.637-0.852-1.291-1.702-1.962-2.547c-0.677-0.853-1.332-1.703-1.968-2.553
	c-2.055-2.403-4.087-4.812-6.104-7.221c-2.02-2.409-4.021-4.853-6.003-7.33c-1.274-1.629-2.478-3.277-3.61-4.939
	c-1.134-1.663-2.302-3.346-3.505-5.043c-2.056-2.976-4.088-5.952-6.108-8.922c-2.018-2.976-4.018-5.986-6-9.032
	c-2.479-3.678-4.904-7.381-7.276-11.099c-2.373-3.717-4.762-7.452-7.167-11.204c-0.852-1.274-1.808-2.514-2.87-3.717
	C355.859,253.4,354.655,252.127,353.312,250.779z"/>
<path fill="#FFFFFF" d="M481.72,222.634c-2.334-0.14-4.619-0.231-6.851-0.267c-2.23-0.035-4.48-0.122-6.743-0.266
	c-3.825-0.14-7.666-0.245-11.525-0.319c-3.859-0.07-7.737-0.174-11.63-0.318c-0.354,0-0.675-0.035-0.957-0.104
	c-0.283-0.071-0.602-0.035-0.955,0.104c-1.628,0.358-3.152,0.301-4.567-0.157c-1.416-0.462-2.831-1.117-4.248-1.968
	c-1.487-0.916-2.479-2.298-2.975-4.14c-0.282-0.99-0.318-1.806-0.105-2.443c0.212-0.638,0.812-1.134,1.805-1.487
	c1.203-0.493,2.409-0.903,3.612-1.222c1.202-0.318,2.407-0.545,3.609-0.689c3.613-0.283,7.241-0.515,10.889-0.689
	c3.646-0.179,7.311-0.337,10.99-0.48c3.684-0.14,7.366-0.283,11.049-0.424c3.683-0.143,7.364-0.283,11.048-0.427
	c1.839-0.07,3.664-0.087,5.468-0.052c1.807,0.039,3.629-0.018,5.471-0.157c5.735-0.354,11.416-0.428,17.048-0.214
	c5.628,0.214,11.31,0.497,17.046,0.85c2.124,0.141,4.425,0.175,6.903,0.105c2.478-0.069,4.742,0.249,6.798,0.956
	c0.565,0.144,0.973,0.37,1.222,0.688c0.249,0.319,0.726,0.515,1.433,0.585c-0.07,0.358-0.105,0.624-0.105,0.798
	c0,0.179-0.036,0.336-0.106,0.476l-4.143,7.011c-0.85,1.558-2.089,2.443-3.718,2.657c-2.477,0.284-4.919,0.585-7.326,0.903
	c-2.41,0.319-4.816,0.55-7.223,0.689c-3.823,0.144-7.578,0.231-11.258,0.266c-3.686,0.035-7.438,0.087-11.261,0.156
	c-0.212,0-0.425,0.023-0.638,0.058c-0.211,0.035-0.46,0.087-0.744,0.157c0,0.354-0.017,0.671-0.052,0.956
	c-0.037,0.283-0.016,0.566,0.052,0.851c0.78,4.249,1.277,8.516,1.487,12.796c0.213,4.289,0.39,8.625,0.534,13.014
	c0.138,3.821,0.299,7.591,0.477,11.309c0.176,3.721,0.333,7.491,0.479,11.313c0.21,5.454,0.441,10.872,0.69,16.251
	c0.248,5.384,0.44,10.833,0.583,16.356c0.142,3.758,0.267,7.476,0.371,11.153c0.106,3.682,0.158,7.434,0.158,11.26
	c0,1.559-0.052,3.098-0.158,4.621c-0.104,1.521-0.195,3.098-0.265,4.724c-0.072,0.567-0.126,1.169-0.159,1.806
	c-0.037,0.638-0.053,1.276-0.053,1.913c0,0.919-0.071,1.788-0.214,2.604c-0.141,0.811-0.461,1.609-0.954,2.386
	c-0.639,1.063-1.366,1.807-2.176,2.233c-0.817,0.423-1.86,0.527-3.136,0.319c-2.267-0.354-4.126-1.205-5.576-2.553
	c-1.454-1.343-2.676-2.972-3.663-4.882c-0.994-1.841-1.719-3.719-2.18-5.634c-0.46-1.909-0.868-3.856-1.221-5.841
	c-0.567-3.537-0.938-7.041-1.116-10.514c-0.177-3.469-0.23-6.972-0.158-10.517c0-1.204-0.036-2.351-0.105-3.45
	c-0.07-1.1-0.143-2.246-0.213-3.451l-0.636-14.659c-0.358-6.584-0.674-13.119-0.958-19.598c-0.283-6.479-0.53-13.01-0.743-19.593
	c-0.213-8.141,0.318-16.217,1.593-24.218c0.07-0.214,0.088-0.441,0.054-0.69C481.738,223.289,481.72,222.987,481.72,222.634z"/>
<path fill="#FFFFFF" d="M669.545,214.31c0,0-45.105,1.167-28.553,52.626C640.992,266.937,609.594,213.312,669.545,214.31z"/>
<path fill="#61BBD0" d="M619.749,351.231c0.617,0.015,1.238,0.026,1.853,0.033c1.212,0.004,2.43-0.033,3.641-0.101
	c4.298-0.227,8.612-0.859,12.91-1.933c2.242-0.568,4.493-1.257,6.723-2.065c5.861-2.124,11.247-4.994,16.096-8.426
	c10.407-7.371,18.322-17.425,23.123-28.789c2.199-5.198,3.734-10.669,4.559-16.289c0.237-1.593,0.398-3.197,0.519-4.808
	c-8.625,23.067-31.569,39.564-58.528,39.564c-34.346,0-62.188-26.769-62.188-59.793c0-14.954,5.723-28.614,15.16-39.099
	c-2.29,1.594-4.472,3.307-6.519,5.144c-8.2,7.351-14.384,16.541-18.155,26.643c-1.836,4.924-3.099,10.072-3.737,15.34
	c-0.282,2.279-0.46,4.574-0.493,6.893c-0.091,5.689,0.566,11.456,2.002,17.174c0.55,2.204,1.203,4.401,1.998,6.583
	c1.972,5.42,4.565,10.432,7.701,14.973c2.131,3.121,4.523,6.011,7.11,8.672C585.617,343.383,602.263,350.711,619.749,351.231"/>
</svg>
