<?xml version="1.0" encoding="utf-8"?>
<!-- Generator: Adobe Illustrator 16.0.0, SVG Export Plug-In . SVG Version: 6.00 Build 0)  -->
<!DOCTYPE svg PUBLIC "-//W3C//DTD SVG 1.1//EN" "http://www.w3.org/Graphics/SVG/1.1/DTD/svg11.dtd">
<svg version="1.1" id="Layer_1" xmlns="http://www.w3.org/2000/svg" xmlns:xlink="http://www.w3.org/1999/xlink" x="0px" y="0px"
	 width="1190.55px" height="841.89px" viewBox="0 0 1190.55 841.89" enable-background="new 0 0 1190.55 841.89"
	 xml:space="preserve">
<path fill="#FFFFFF" d="M55.136,362.032c0.897,6.718,1.715,13.171,2.463,19.356c0.745,6.194,1.489,12.415,2.239,18.685
	c0.293,3.436,0.556,6.829,0.78,10.183c0.226,3.354,0.483,6.746,0.781,10.175c0.451,6.121,0.896,12.158,1.347,18.125
	c0.445,5.974,0.818,12.013,1.117,18.124c0.298,6.266,0.481,12.571,0.559,18.905c0.075,6.341,0.185,12.646,0.337,18.915
	c0,8.65-0.225,17.226-0.672,25.727c-0.151,2.841-0.488,5.597-1.006,8.28c-0.529,2.684-1.457,5.295-2.798,7.832
	c-1.792,3.28-4.178,6.12-7.16,8.502c-1.646,1.495-3.17,3.096-4.587,4.813c-1.419,1.713-2.797,3.468-4.141,5.258
	c-4.176,5.22-9.024,10.147-14.544,14.759c-2.091-0.891-3.542-2.119-4.361-3.683c-0.823-1.574-1.609-3.245-2.352-5.037
	c-0.746-1.79-1.453-3.613-2.124-5.478c-0.67-1.865-1.458-3.697-2.348-5.487c-2.239-4.321-4.067-8.842-5.482-13.538
	c-1.419-4.698-2.207-9.577-2.353-14.649c-0.298-8.954-0.483-17.904-0.557-26.854c-0.079-8.956-0.262-17.899-0.562-26.852
	c-0.297-8.208-0.524-16.366-0.67-24.502c-0.151-8.124-0.372-16.22-0.67-24.273c-0.304-6.12-0.413-12.158-0.336-18.122
	c0.074-5.965-0.036-11.938-0.334-17.904c-0.304-6.268-0.671-12.527-1.121-18.795c-0.447-6.258-0.819-12.527-1.119-18.794
	c-0.297-4.771-0.408-9.431-0.334-13.979c0.079-4.55,0.184-9.209,0.334-13.988c0-2.535,0.111-5.037,0.337-7.491
	c0.225-2.462,0.407-4.963,0.561-7.499c0.146-2.381,0.964-4.512,2.458-6.378c1.489-1.866,3.28-3.282,5.374-4.246
	c2.084-0.975,4.323-1.417,6.713-1.343c2.379,0.072,4.544,0.781,6.487,2.125c1.637,1.047,3.132,2.084,4.473,3.133
	c1.342,1.039,2.385,2.381,3.134,4.027c2.684,5.669,6.152,10.66,10.404,14.988c4.25,4.329,8.464,8.724,12.642,13.2
	c5.965,6.266,11.672,12.609,17.117,19.025c5.441,6.415,10.478,13.196,15.101,20.356c5.372,8.208,10.666,16.332,15.885,24.393
	c5.221,8.051,10.594,16.103,16.112,24.163c5.22,7.757,10.552,15.439,15.998,23.039c5.445,7.611,11,15.221,16.672,22.832
	c3.129,4.319,6.489,8.426,10.068,12.308c3.58,3.877,7.08,7.828,10.514,11.853c0.146,0.147,0.336,0.258,0.562,0.333
	c0.225,0.082,0.482,0.194,0.78,0.339c1.196-0.302,1.825-0.816,1.904-1.57c0.072-0.746,0.113-1.49,0.113-2.234
	c-0.303-4.771-0.529-9.514-0.675-14.209c-0.146-4.699-0.373-9.43-0.67-14.208c-0.447-11.187-0.892-22.298-1.343-33.335
	c-0.446-11.04-0.822-22.151-1.116-33.344c-0.304-9.541-0.488-19.054-0.56-28.528c-0.077-9.468-0.261-18.98-0.561-28.529
	c-0.147-6.709-0.298-13.271-0.447-19.687c-0.151-6.415-0.225-12.976-0.225-19.686c0-3.878,0.409-7.646,1.232-11.304
	c0.817-3.65,2.2-7.417,4.14-11.296c2.238,1.047,3.878,2.39,4.922,4.025c1.043,1.646,1.86,3.438,2.462,5.369
	c0.446,1.341,0.744,2.765,0.893,4.255c0.146,1.488,0.371,2.902,0.67,4.253c2.537,10.441,4.214,20.956,5.037,31.544
	c0.818,10.596,1.678,21.258,2.573,31.993c1.043,12.086,2.051,24.208,3.02,36.358c0.971,12.159,2.049,24.355,3.245,36.587
	c0.449,4.477,1.079,8.952,1.902,13.429c0.818,4.467,1.378,9.024,1.676,13.65c0.746,9.392,1.53,18.756,2.348,28.073
	c0.819,9.321,0.634,18.761-0.557,28.312c-0.302,2.087-0.748,4.137-1.341,6.149c-0.597,2.012-1.273,4.062-2.017,6.146
	c-0.893,2.391-1.866,4.78-2.908,7.169c-1.045,2.382-2.092,4.918-3.131,7.604c-4.327-0.149-8.652-0.59-12.976-1.343
	c-4.33-0.747-7.984-3.211-10.966-7.383c-1.342-1.792-2.725-3.584-4.139-5.365c-1.42-1.794-2.795-3.587-4.141-5.376
	c-4.324-5.063-8.611-10.139-12.863-15.212c-4.25-5.075-8.47-10.223-12.642-15.442c-2.685-3.431-5.225-6.902-7.61-10.405
	c-2.385-3.503-4.848-7.048-7.38-10.623c-4.329-6.268-8.616-12.539-12.868-18.795c-4.25-6.269-8.468-12.609-12.641-19.027
	c-5.226-7.747-10.331-15.548-15.326-23.38c-5-7.83-10.037-15.698-15.105-23.602c-1.789-2.684-3.806-5.295-6.039-7.83
	C60.509,367.555,57.968,364.873,55.136,362.032z"/>
<path fill="#FFFFFF" d="M420.29,559.16c0,1.643-0.859,3.096-2.573,4.363c-1.715,1.269-3.321,2.279-4.812,3.023
	c-1.195,0.597-2.348,1.195-3.464,1.783c-1.122,0.599-2.28,0.828-3.47,0.671c-3.433-0.295-6.866-0.367-10.293-0.222
	c-3.434,0.149-6.714-0.67-9.845-2.462c-3.285-1.638-6.121-3.76-8.5-6.378c-2.39-2.603-4.402-5.625-6.042-9.062
	c-2.685-5.213-4.922-10.515-6.715-15.88c-1.787-5.37-3.281-10.89-4.476-16.563c-1.341-6.709-2.945-13.271-4.806-19.686
	c-1.87-6.418-3.694-12.908-5.482-19.47c-1.94-7.012-3.622-14.055-5.037-21.14c-1.42-7.085-2.872-14.207-4.36-21.367
	c0-0.305-0.043-0.562-0.116-0.791c-0.074-0.22-0.111-0.478-0.111-0.781c-0.297-1.636-0.597-2.904-0.895-3.805
	c-0.299-0.892-0.708-1.563-1.227-2.013c-0.529-0.441-1.231-0.706-2.128-0.781c-0.896-0.075-2.165-0.109-3.805-0.109
	c-14.02,0-28.046-0.672-42.061-2.015c-0.75-0.146-1.569-0.183-2.464-0.108c-0.896,0.073-2.015,0.108-3.355,0.108
	c-1.943,0.149-3.36,0.182-4.25,0.112c-0.897-0.075-1.608,0.037-2.128,0.332c-0.523,0.3-1.006,0.971-1.452,2.02
	c-0.45,1.038-1.122,2.758-2.018,5.14c-4.92,12.083-9.878,24.134-14.88,36.137c-4.994,12.013-9.952,24.056-14.874,36.141
	c-1.792,4.329-3.396,8.686-4.812,13.087c-1.42,4.403-2.951,8.842-4.586,13.317c-0.749,2.38-1.756,4.552-3.024,6.489
	c-1.268,1.939-2.944,3.722-5.032,5.367c-0.896,0.744-1.829,1.378-2.798,1.902c-0.97,0.523-2.05,0.416-3.244-0.34
	c-1.194-0.744-1.902-1.673-2.124-2.796c-0.225-1.12-0.188-2.268,0.111-3.463c1.639-6.416,3.244-12.792,4.811-19.137
	c1.568-6.342,3.392-12.636,5.482-18.906c5.22-16.259,10.997-32.262,17.338-47.994c6.338-15.735,12.344-31.736,18.014-47.994
	c3.129-9.246,6.521-18.234,10.179-26.965c3.654-8.724,7.344-17.564,11.075-26.508c3.727-8.805,7.385-17.526,10.964-26.184
	c3.58-8.648,7.16-17.298,10.74-25.956l5.818-15.66c0.592-1.196,1.042-2.307,1.342-3.354c0.298-1.04,1.042-1.939,2.238-2.685
	c2.087-1.195,3.989-2.463,5.708-3.805c1.708-1.341,3.464-2.685,5.257-4.026c1.489-1.048,3.277-1.939,5.367-2.682
	c2.688-0.598,5.294-0.792,7.835-0.562c2.532,0.221,4.026,1.673,4.471,4.357c2.238,6.571,4.774,14.475,7.61,23.721
	c2.532,7.904,5.441,17.673,8.725,29.311c3.278,11.635,7.083,25.282,11.412,40.943c2.087,10.597,4.25,21.075,6.489,31.441
	c2.238,10.368,4.843,20.698,7.83,30.981c1.792,6.271,3.354,12.612,4.701,19.027c1.342,6.416,2.756,12.829,4.251,19.236
	c4.324,16.109,8.275,30.733,11.856,43.857c1.489,5.674,2.946,11.224,4.365,16.676c1.417,5.439,2.685,10.402,3.802,14.876
	c1.121,4.479,1.975,8.273,2.573,11.409C419.992,556.472,420.29,558.413,420.29,559.16z M322.961,317.953
	c-3.58,7.766-7.086,15.256-10.514,22.489c-3.437,7.243-6.792,14.43-10.069,21.589c-6.865,14.476-12.835,28.942-17.904,43.407
	c-0.298,0.902-0.597,1.756-0.89,2.575c-0.304,0.827-0.304,1.829,0,3.023c3.427-0.294,6.782-0.597,10.069-0.892
	c3.274-0.303,6.561-0.45,9.842-0.45c4.324-0.147,8.648-0.184,12.977-0.111c4.324,0.074,8.649,0.111,12.979,0.111
	c2.683,0,4.25-0.258,4.695-0.782c0.451-0.524,0.524-2.05,0.226-4.585c-1.342-10.745-2.685-21.443-4.026-32.113
	c-1.342-10.663-2.688-21.371-4.03-32.104c-0.445-3.438-0.892-6.977-1.343-10.634C324.526,325.829,323.856,321.987,322.961,317.953z"
	/>
<path fill="#FFFFFF" d="M477.572,362.032c0.89,6.718,1.709,13.171,2.459,19.356c0.743,6.194,1.488,12.415,2.237,18.685
	c0.299,3.436,0.562,6.829,0.782,10.183c0.225,3.354,0.482,6.746,0.786,10.175c0.446,6.121,0.896,12.158,1.341,18.125
	c0.447,5.974,0.819,12.013,1.117,18.124c0.299,6.266,0.483,12.571,0.56,18.905c0.074,6.341,0.189,12.646,0.336,18.915
	c0,8.65-0.221,17.226-0.67,25.727c-0.152,2.841-0.488,5.597-1.006,8.28c-0.524,2.684-1.452,5.295-2.8,7.832
	c-1.788,3.28-4.177,6.12-7.16,8.502c-1.64,1.495-3.17,3.096-4.585,4.813c-1.42,1.713-2.795,3.468-4.142,5.258
	c-4.178,5.22-9.026,10.147-14.541,14.759c-2.09-0.891-3.547-2.119-4.364-3.683c-0.823-1.574-1.604-3.245-2.349-5.037
	c-0.748-1.79-1.456-3.613-2.127-5.478c-0.673-1.865-1.453-3.697-2.348-5.487c-2.238-4.321-4.066-8.842-5.482-13.538
	c-1.421-4.698-2.202-9.577-2.349-14.649c-0.298-8.954-0.488-17.904-0.56-26.854c-0.074-8.956-0.262-17.899-0.557-26.852
	c-0.303-8.208-0.527-16.366-0.675-24.502c-0.146-8.124-0.372-16.22-0.67-24.273c-0.3-6.12-0.41-12.158-0.336-18.122
	c0.074-5.965-0.037-11.938-0.334-17.904c-0.299-6.268-0.673-12.527-1.119-18.795c-0.445-6.258-0.821-12.527-1.121-18.794
	c-0.293-4.771-0.408-9.431-0.336-13.979c0.08-4.55,0.19-9.209,0.336-13.988c0-2.535,0.116-5.037,0.334-7.491
	c0.227-2.462,0.411-4.963,0.562-7.499c0.147-2.381,0.97-4.512,2.463-6.378c1.49-1.866,3.278-3.282,5.368-4.246
	c2.092-0.975,4.324-1.417,6.714-1.343c2.385,0.072,4.55,0.781,6.49,2.125c1.64,1.047,3.133,2.084,4.476,3.133
	c1.342,1.039,2.384,2.381,3.13,4.027c2.688,5.669,6.154,10.66,10.409,14.988c4.25,4.329,8.459,8.724,12.642,13.2
	c5.958,6.266,11.667,12.609,17.112,19.025c5.446,6.415,10.478,13.196,15.106,20.356c5.366,8.208,10.66,16.332,15.885,24.393
	c5.221,8.051,10.587,16.103,16.113,24.163c5.214,7.757,10.55,15.439,15.996,23.039c5.441,7.611,10.996,15.221,16.662,22.832
	c3.134,4.319,6.488,8.426,10.073,12.308c3.586,3.877,7.086,7.828,10.517,11.853c0.147,0.147,0.339,0.258,0.562,0.333
	c0.22,0.082,0.484,0.194,0.779,0.339c1.192-0.302,1.827-0.816,1.901-1.57c0.073-0.746,0.112-1.49,0.112-2.234
	c-0.299-4.771-0.523-9.514-0.674-14.209c-0.147-4.699-0.367-9.43-0.669-14.208c-0.442-11.187-0.894-22.298-1.341-33.335
	c-0.444-11.04-0.821-22.151-1.113-33.344c-0.303-9.541-0.488-19.054-0.561-28.528c-0.085-9.468-0.267-18.98-0.562-28.529
	c-0.157-6.709-0.306-13.271-0.451-19.687c-0.145-6.415-0.221-12.976-0.221-19.686c0-3.878,0.405-7.646,1.233-11.304
	c0.817-3.65,2.196-7.417,4.138-11.296c2.23,1.047,3.875,2.39,4.923,4.025c1.037,1.646,1.858,3.438,2.452,5.369
	c0.454,1.341,0.747,2.765,0.903,4.255c0.146,1.488,0.367,2.902,0.669,4.253c2.541,10.441,4.212,20.956,5.038,31.544
	c0.819,10.596,1.673,21.258,2.571,31.993c1.041,12.086,2.04,24.208,3.019,36.358c0.974,12.159,2.05,24.355,3.243,36.587
	c0.449,4.477,1.083,8.952,1.902,13.429c0.818,4.467,1.378,9.024,1.682,13.65c0.744,9.392,1.526,18.756,2.343,28.073
	c0.818,9.321,0.636,18.761-0.56,28.312c-0.295,2.087-0.744,4.137-1.343,6.149c-0.597,2.012-1.269,4.062-2.013,6.146
	c-0.892,2.391-1.864,4.78-2.901,7.169c-1.048,2.382-2.097,4.918-3.135,7.604c-4.334-0.149-8.65-0.59-12.979-1.343
	c-4.328-0.747-7.977-3.211-10.964-7.383c-1.342-1.792-2.719-3.584-4.134-5.365c-1.426-1.794-2.805-3.587-4.146-5.376
	c-4.33-5.063-8.611-10.139-12.857-15.212c-4.256-5.075-8.471-10.223-12.646-15.442c-2.684-3.431-5.22-6.902-7.606-10.405
	c-2.389-3.503-4.848-7.048-7.384-10.623c-4.33-6.268-8.612-12.539-12.868-18.795c-4.251-6.269-8.463-12.609-12.641-19.027
	c-5.221-7.747-10.331-15.548-15.327-23.38c-4.999-7.83-10.031-15.698-15.099-23.602c-1.793-2.684-3.807-5.295-6.044-7.83
	C482.939,367.555,480.403,364.873,477.572,362.032z"/>
<path fill="#FFFFFF" d="M748.079,302.742c-4.918-0.293-9.731-0.488-14.432-0.562c-4.698-0.073-9.439-0.256-14.205-0.559
	c-8.059-0.295-16.149-0.516-24.28-0.672c-8.131-0.147-16.3-0.367-24.5-0.671c-0.744,0-1.421-0.072-2.015-0.219
	c-0.597-0.148-1.269-0.074-2.013,0.219c-3.43,0.755-6.641,0.635-9.621-0.331c-2.983-0.973-5.964-2.353-8.95-4.145
	c-3.133-1.929-5.222-4.842-6.266-8.722c-0.595-2.086-0.672-3.804-0.223-5.146c0.447-1.343,1.711-2.389,3.803-3.133
	c2.534-1.039,5.075-1.903,7.608-2.575c2.532-0.67,5.07-1.147,7.604-1.452c7.611-0.597,15.254-1.084,22.938-1.452
	c7.68-0.376,15.4-0.708,23.152-1.011c7.759-0.294,15.518-0.597,23.276-0.893c7.757-0.302,15.513-0.597,23.272-0.899
	c3.874-0.147,7.719-0.183,11.519-0.11c3.807,0.082,7.645-0.038,11.525-0.332c12.081-0.745,24.049-0.9,35.912-0.45
	c11.855,0.45,23.826,1.047,35.909,1.791c4.476,0.296,9.321,0.369,14.544,0.221c5.218-0.146,9.988,0.524,14.319,2.014
	c1.191,0.304,2.05,0.78,2.574,1.451c0.524,0.671,1.527,1.085,3.019,1.232c-0.15,0.754-0.223,1.315-0.223,1.682
	c0,0.377-0.077,0.708-0.225,1.002l-8.728,14.769c-1.79,3.282-4.398,5.147-7.831,5.597c-5.218,0.599-10.363,1.232-15.434,1.904
	c-5.077,0.671-10.146,1.158-15.216,1.452c-8.054,0.303-15.965,0.487-23.717,0.561c-7.763,0.074-15.667,0.184-23.721,0.33
	c-0.446,0-0.894,0.048-1.343,0.121c-0.444,0.074-0.969,0.184-1.567,0.331c0,0.744-0.035,1.415-0.11,2.014
	c-0.077,0.597-0.033,1.193,0.11,1.792c1.643,8.951,2.69,17.939,3.133,26.956c0.449,9.034,0.821,18.17,1.125,27.416
	c0.29,8.05,0.63,15.991,1.004,23.823c0.37,7.838,0.702,15.781,1.009,23.832c0.442,11.489,0.929,22.903,1.453,34.235
	c0.523,11.341,0.929,22.822,1.229,34.456c0.299,7.915,0.562,15.747,0.781,23.494c0.225,7.756,0.334,15.66,0.334,23.721
	c0,3.283-0.109,6.525-0.334,9.733c-0.22,3.206-0.41,6.526-0.557,9.951c-0.152,1.196-0.265,2.464-0.335,3.805
	c-0.08,1.343-0.112,2.688-0.112,4.029c0,1.938-0.149,3.768-0.449,5.487c-0.297,1.708-0.971,3.39-2.01,5.025
	c-1.346,2.241-2.878,3.807-4.584,4.705c-1.722,0.892-3.919,1.111-6.605,0.674c-4.775-0.748-8.692-2.538-11.748-5.379
	c-3.062-2.829-5.637-6.259-7.717-10.283c-2.094-3.877-3.619-7.834-4.591-11.868c-0.969-4.021-1.829-8.123-2.571-12.305
	c-1.195-7.452-1.977-14.832-2.352-22.148c-0.372-7.308-0.486-14.688-0.334-22.153c0-2.536-0.075-4.953-0.223-7.27
	s-0.3-4.731-0.447-7.271l-1.341-30.881c-0.753-13.868-1.418-27.636-2.017-41.285c-0.597-13.649-1.118-27.407-1.565-41.275
	c-0.449-17.15,0.669-34.163,3.355-51.017c0.147-0.451,0.185-0.929,0.112-1.453C748.116,304.12,748.079,303.486,748.079,302.742z"/>
<path fill="#FFFFFF" d="M1143.753,285.207c0,0-95.02,2.459-60.149,110.864C1083.604,396.07,1017.459,283.104,1143.753,285.207z"/>
<path fill="#61BBD0" d="M1038.853,573.646c1.301,0.033,2.608,0.057,3.902,0.07c2.553,0.01,5.12-0.07,7.67-0.211
	c9.053-0.477,18.144-1.811,27.196-4.07c4.724-1.198,9.467-2.649,14.162-4.353c12.348-4.474,23.693-10.52,33.906-17.75
	c21.924-15.526,38.601-36.707,48.713-60.647c4.633-10.95,7.866-22.475,9.603-34.313c0.501-3.355,0.84-6.736,1.093-10.129
	c-18.169,48.593-66.504,83.346-123.297,83.346c-72.354,0-131.006-56.392-131.006-125.961c0-31.501,12.055-60.278,31.937-82.366
	c-4.825,3.357-9.42,6.966-13.732,10.835c-17.275,15.485-30.301,34.845-38.247,56.127c-3.867,10.373-6.527,21.218-7.873,32.315
	c-0.595,4.801-0.969,9.635-1.039,14.521c-0.189,11.984,1.193,24.133,4.219,36.179c1.158,4.642,2.534,9.272,4.209,13.868
	c4.153,11.418,9.617,21.976,16.223,31.54c4.489,6.575,9.529,12.663,14.979,18.27C966.95,557.112,1002.017,572.551,1038.853,573.646"
	/>
</svg>
